<?xml version="1.0" encoding="UTF-8"?>
<svg xmlns="http://www.w3.org/2000/svg" viewBox="0 0 2890.13 2890.16">
  <defs>
    <style>
      .cls-1 {
        fill: #231f20;
        stroke-width: 0px;
      }
    </style>
  </defs>
  <g id="Layer_3" data-name="Layer 3">
    <path class="cls-1" d="m1921.52,1103.39c-1.65,2.17-3.31,4.33-4.98,6.51-1.37,1.78-2.75,3.57-4.13,5.37-1.97,2.55-3.95,5.12-5.94,7.68-1.69,2.19-3.39,4.37-5.09,6.56-1.7,2.19-3.41,4.38-5.13,6.57-8.55,10.92-17.25,21.9-26.09,32.93-10.7,13.34-21.61,26.76-32.73,40.24-1.85,2.24-3.7,4.48-5.56,6.73-9.29,11.22-18.72,22.48-28.29,33.78-1.91,2.26-3.83,4.52-5.75,6.78-13.46,15.85-27.19,31.75-41.17,47.71-3.99,4.56-8,9.12-12.03,13.69-7.13,8.09-14.33,16.19-21.59,24.29-1.84,2.05-3.68,4.11-5.53,6.16-4.53,5.05-9.09,10.1-13.68,15.15-2.29,2.53-4.59,5.06-6.89,7.59-2.3,2.53-4.6,5.05-6.92,7.58-2.31,2.53-4.63,5.06-6.95,7.59s-4.65,5.06-6.99,7.59c-2.34,2.53-4.67,5.06-7.02,7.59-4.68,5.07-9.39,10.13-14.13,15.19-2.36,2.53-4.73,5.06-7.11,7.59-2.37,2.53-4.75,5.06-7.14,7.59-2.09,2.23-4.19,4.45-6.29,6.67-5.08,5.37-10.18,10.74-15.31,16.1-2.41,2.53-4.83,5.06-7.25,7.59-.05.06-.11.11-.16.17-2.37,2.47-4.75,4.94-7.13,7.41-2.42,2.53-4.86,5.06-7.31,7.58-2.44,2.53-4.88,5.05-7.34,7.58-4.89,5.05-9.81,10.09-14.75,15.13-2.47,2.52-4.94,5.04-7.42,7.56-9.9,10.08-19.88,20.14-29.92,30.18-4.4,4.4-8.8,8.79-13.21,13.17-27.49,27.28-55.1,54.06-82.74,80.26-2.3,2.18-4.59,4.34-6.88,6.51-2.11,1.99-4.22,3.98-6.33,5.97-4.76,4.48-9.52,8.94-14.29,13.39-2.29,2.13-4.58,4.27-6.87,6.4-2.29,2.13-4.58,4.25-6.87,6.38-2.29,2.12-4.58,4.24-6.87,6.35-6.87,6.34-13.74,12.63-20.6,18.89-2.29,2.09-4.58,4.17-6.87,6.25-2.28,2.08-4.57,4.15-6.86,6.22-2.28,2.06-4.57,4.13-6.85,6.19-4.57,4.12-9.14,8.21-13.7,12.29-9.07,8.1-18.12,16.13-27.15,24.08-6.9,6.06-13.78,12.08-20.65,18.05-2.27,1.97-4.54,3.93-6.81,5.9-2.26,1.96-4.53,3.91-6.79,5.86-2.29,1.97-4.57,3.94-6.85,5.89-2.25,1.93-4.49,3.84-6.73,5.76-2.25,1.93-4.51,3.85-6.77,5.77-2.26,1.92-4.51,3.83-6.76,5.74-4.42,3.74-8.83,7.46-13.24,11.17-.09.07-.18.14-.27.22-8.82,7.41-17.62,14.73-26.39,21.97-2.4,1.98-4.79,3.95-7.19,5.92-2.23,1.83-4.45,3.65-6.68,5.47-2.23,1.82-4.45,3.64-6.67,5.44-2.22,1.81-4.44,3.61-6.66,5.41-2.22,1.8-4.43,3.59-6.65,5.37-11.07,8.93-22.08,17.7-33.03,26.32-2.19,1.73-4.38,3.45-6.57,5.16-8.74,6.85-17.44,13.6-26.1,20.24-2.17,1.67-4.33,3.32-6.49,4.97-24.5,18.72-58.79,17.83-82.13-2.32-133.7-115.45-218.08-284.74-218.08-473.4,0-347.88,286.92-629.9,640.87-629.9,186.89,0,355.09,78.62,472.23,204.05,21.75,23.29,23.56,58.83,4.22,84.16Z"/>
    <path class="cls-1" d="m2061.48,1618.03c-59.37,204.81-221.54,367.03-428.19,429.35-7.56,2.28-13.01-7.25-7.22-12.64.88-.82,1.77-1.64,2.65-2.47,2.99-2.78,5.97-5.56,8.95-8.35,5.9-5.5,11.79-11.02,17.68-16.57,3.32-3.11,6.64-6.23,9.95-9.36,17.42-16.43,34.83-32.99,52.19-49.67,2.85-2.74,5.7-5.48,8.55-8.23,7.92-7.62,15.83-15.27,23.73-22.95,4.25-4.12,8.5-8.26,12.75-12.41,3.99-3.89,7.98-7.79,11.96-11.7,10.53-10.3,21.03-20.65,31.51-31.03,9.37-9.28,18.73-18.59,28.07-27.93,8.1-8.09,16.17-16.2,24.23-24.33,10.57-10.65,21.1-21.34,31.6-32.05,2.8-2.85,5.6-5.71,8.39-8.57,3.38-3.45,6.75-6.9,10.11-10.36.52-.53,1.04-1.06,1.56-1.6,4.7-4.82,9.38-9.64,14.05-14.47,4.42-4.55,8.82-9.1,13.2-13.66.95-.97,1.89-1.95,2.83-2.93,4.34-4.5,8.67-9,12.98-13.51.23-.23.46-.47.69-.71,3.16-3.3,6.32-6.6,9.46-9.9,12.9-13.49,25.71-27,38.45-40.53,3.44-3.65,6.88-7.3,10.3-10.95,5.65-6.02,11.28-12.04,16.89-18.06,3.59-3.84,7.16-7.68,10.72-11.52,1.04-1.12,2.08-2.23,3.11-3.35,2.06-2.22,4.12-4.45,6.18-6.67,5.34-5.78,14.86-.43,12.67,7.13Z"/>
  </g>
  <g id="Layer_1" data-name="Layer 1">
    <path class="cls-1" d="m2745.78,144.37c-29.46-29.44-71.28-44.37-124.3-44.37s-114.79,14.27-188.36,42.43c-69.83,26.73-149.55,66.13-236.94,117.13-66.97,39.1-143.52,59.76-221.37,59.76-48.79,0-97-8.01-143.27-23.83-124.16-42.43-254.19-63.95-386.48-63.95-81.65,0-163.25,8.3-242.54,24.67-77.3,15.95-153.34,39.76-226,70.76-71.32,30.42-140.1,68.09-204.44,111.93-63.71,43.42-123.62,93.28-178.06,148.19-54.44,54.92-103.85,115.34-146.9,179.59-43.44,64.88-80.76,134.23-110.91,206.13-30.71,73.24-54.29,149.88-70.1,227.81-16.22,79.92-24.44,162.17-24.44,244.46,0,130.61,20.47,259.14,60.84,381.99,39.66,120.71,25.56,252.59-38.68,361.84-76.17,129.51-126.45,240.84-149.43,330.89-12.32,48.3-16.78,90.97-13.22,126.83,4.07,41.23,18.6,74.58,43.17,99.16,29.45,29.44,71.26,44.37,124.29,44.37,69.63,0,160.59-26.07,270.35-77.49,99.47-46.59,212.89-113.09,337.42-197.82,82.04,44.42,169,79.09,258.84,103.17,100.57,26.94,204.8,40.6,309.81,40.6,81.64,0,163.25-8.3,242.55-24.67,77.3-15.95,153.34-39.77,225.99-70.76,71.32-30.43,140.11-68.09,204.45-111.93,63.7-43.42,123.62-93.28,178.05-148.19,54.44-54.92,103.86-115.34,146.89-179.59,43.46-64.88,80.77-134.23,110.93-206.13,30.7-73.24,54.29-149.88,70.1-227.81,16.21-79.92,24.43-162.17,24.43-244.46,0-103.82-13.02-206.93-38.71-306.48-22.97-89-56.08-175.3-98.53-256.85,54.81-80.29,102.53-156.7,141.98-227.39,43.25-77.49,76.77-148.47,99.63-210.98,24.05-65.77,36.6-123.14,37.29-170.5.81-55.05-14.11-98.28-44.33-128.51Zm-1819.33,2018.88c-55.35,32.57-105.39,57.57-148.73,74.33-41.72,16.12-76.2,24.3-102.48,24.3-8.93,0-16.67-.99-22.99-2.91-5.77-1.75-10.18-4.23-13.5-7.55-3.48-3.48-6.02-8.12-7.78-14.21-4.11-14.2-7.03-48.55,19.48-119.22,43.62-116.3,43.42-244.98-.53-362.35-1.13-3-2.25-6.04-3.32-9.01-34.91-96.36-52.62-197.81-52.62-301.55,0-479.28,381.8-869.19,851.08-869.19,107.95,0,213.12,20.34,312.59,60.48,1.07.44,2.14.88,3.21,1.31,62.09,25.36,127.74,38.21,195.11,38.21,59.04,0,117.36-9.94,173.36-29.54,34.24-11.99,63.02-18.07,85.55-18.07,8.93,0,16.67.99,23,2.91,5.76,1.75,10.18,4.23,13.49,7.55,3.48,3.48,6.03,8.12,7.78,14.21,3.65,12.62,6.73,42.8-13.73,103.14-16.84,49.69-45.8,109.24-86.09,176.98-39.98,67.21-89.95,140.44-147.83,217.1-110.41,146.22-249.57,304.95-402.98,458.36-151.68,151.68-308.17,289.14-452.74,398.77-81.19,61.57-158.63,114.36-229.33,155.95Zm518.61,151.02c-62.12,0-123.32-6.74-183.04-20.11-27.91-6.24-36.41-41.92-14.36-60.12,61.37-50.68,123.48-103.91,185.66-159.17,4.59-4.07,9.17-8.16,13.76-12.26,105.78-94.47,212.18-195.15,316.27-299.24,101.93-101.93,200.63-206.14,293.39-309.73,9.64-10.77,19.23-21.55,28.75-32.32,46.57-52.64,91.68-105.2,134.97-157.28,7.09-8.53,16.75-12.45,26.29-12.45,15.5,0,30.68,10.34,34.02,28.04,10.22,54.19,15.37,109.49,15.37,165.45,0,479.28-381.79,869.19-851.08,869.19Z"/>
  </g>
</svg>